****** Farewell.2009.DVDRiP.XViD.NORDIC-Zen_Bud ******

Format                           : AVI
File size                        : 1.37 GiB
Duration                         : 1h 48mn
Overall bit rate                 : 1 806 Kbps

Video

Format                           : MPEG-4 Visual
Format profile                   : Simple@L3
Codec ID                         : XVID
Duration                         : 1h 48mn
Bit rate                         : 1 665 Kbps
Width                            : 720 pixels
Height                           : 556 pixels
Display aspect ratio             : 16:9
Stream size                      : 1.26 GiB (92%)
Writing library                  : XviD 1.1.2 (UTC 2006-11-01)

Audio

Format                           : MPEG Audio
Format version                   : Version 1
Codec ID/Hint                    : MP3
Duration                         : 1h 48mn
Bit rate                         : 128 Kbps
Channel(s)                       : 2 channels
Sampling rate                    : 48.0 KHz
Stream size                      : 99.5 MiB (7%)
Language                         : French

Text #1
Format                           : VobSub
Language                         : Swedish

Text #2
Format                           : VobSub
Language                         : Norwegian

Text #3
Format                           : VobSub
Language                         : Danish

Text #4
Format                           : VobSub
Language                         : Finnish

The French intelligence service alerts the U.S. about a Soviet spy operation 
during the height of the Cold War, which sets off an unfortunate chain of events. 